<svg width="179" height="211" viewBox="0 0 179 211" fill="none" xmlns="http://www.w3.org/2000/svg">
<path d="M140.23 180.285C144.592 177.203 144.781 170.532 132.407 156.722C119.865 142.998 79.9312 98.9772 78.4807 97.3871C77.0302 95.7971 72.5026 90.269 73.6308 84.6017C74.759 78.9344 78.276 75.8611 65.4635 60.3666C52.6511 44.8722 37.3902 38.2659 29.0536 40.626C20.7171 42.9861 7.21697 43.9609 10.2745 63.6021C13.332 83.2432 21.345 100.135 36.9421 106.569C52.5391 113.003 52.7508 99.7466 67.1978 118.433C81.6449 137.12 107.25 165.999 111.695 171.781C116.055 177.395 126.052 189.877 140.144 180.117L140.23 180.285Z" fill="#FFB6C2"/>
<path d="M156.623 186.884C159.457 185.164 168.977 175.122 161.68 147.876C154.383 120.63 141.272 86.8724 140.673 83.1905C140.075 79.5086 131.189 61.5251 135.492 60.9489C139.795 60.3727 144.577 52.1761 141.693 44.3036C138.809 36.431 125.241 2.41175 118.081 3.17666C111.15 4.07239 129.097 45.756 124.551 48.3184C120.004 50.8808 108.025 7.59897 101.359 8.03933C94.694 8.47969 113.8 48.7004 109.408 52.566C105.017 56.4316 94.3147 13.5761 86.5868 15.8379C78.8109 17.9205 95.6218 62.598 96.5595 64.6521C97.4973 66.7062 102.325 70.9843 110.729 68.3495C113.345 67.2645 137.891 156.745 139.741 162.205C141.591 167.665 145.998 192.803 156.623 186.884Z" fill="#FFB6C2"/>
</svg>
